<?xml version="1.0" encoding="UTF-8"?>
<svg width="749px" height="596px" viewBox="0 0 749 596" version="1.1" xmlns="http://www.w3.org/2000/svg" xmlns:xlink="http://www.w3.org/1999/xlink">
    <!-- Generator: Sketch 50.2 (55047) - http://www.bohemiancoding.com/sketch -->
    <title>favicon</title>
    <desc>Created with Sketch.</desc>
    <defs></defs>
    <g id="Style-Guide" stroke="none" stroke-width="1" fill="none" fill-rule="evenodd">
        <g id="Desktop" transform="translate(-138.000000, -214.000000)" fill="#F49D37">
            <path d="M780.040704,557.292284 L780.040704,780.26968 C780.040704,788.321682 777.098671,795.289656 771.214515,801.173811 C765.33036,807.057967 758.362386,810 750.310384,810 L571.928467,810 L571.928467,631.618083 L453.007189,631.618083 L453.007189,810 L274.625271,810 C266.57327,810 259.605296,807.057967 253.721141,801.173811 C247.836985,795.289656 244.894952,788.321682 244.894952,780.26968 L244.894952,557.292284 C244.894952,556.982591 244.972374,556.51806 245.12722,555.898675 C245.282066,555.27929 245.359488,554.814759 245.359488,554.505066 L512.467828,334.314887 L779.576168,554.505066 C779.88586,555.124451 780.040704,556.053514 780.040704,557.292284 Z M883.632286,525.239283 L854.831039,559.614965 C852.3535,562.402196 849.101779,564.105479 845.075778,564.724864 L843.682169,564.724864 C839.656168,564.724864 836.404447,563.640957 833.926908,561.47311 L512.467828,293.435698 L191.008748,561.47311 C187.292439,563.950649 183.576186,565.034556 179.859878,564.724864 C175.833877,564.105479 172.582156,562.402196 170.104617,559.614965 L141.30337,525.239283 C138.825831,522.142359 137.741924,518.503528 138.051616,514.322681 C138.361308,510.141834 140.064591,506.812691 143.161515,504.335152 L477.163073,226.077942 C487.07323,218.025941 498.841363,214 512.467828,214 C526.094293,214 537.862426,218.025941 547.772582,226.077942 L661.119426,320.843336 L661.119426,230.258769 C661.119426,225.923075 662.513021,222.361666 665.300252,219.574435 C668.087483,216.787204 671.648892,215.393609 675.984586,215.393609 L765.175544,215.393609 C769.511238,215.393609 773.072646,216.787204 775.859878,219.574435 C778.647109,222.361666 780.040704,225.923075 780.040704,230.258769 L780.040704,419.789556 L881.774141,504.335152 C884.871065,506.812691 886.574348,510.141834 886.88404,514.322681 C887.193732,518.503528 886.109825,522.142359 883.632286,525.239283 Z" id="favicon"></path>
        </g>
    </g>
</svg>