<?xml version="1.0" encoding="UTF-8"?>
<svg width="1024px" height="1024px" viewBox="0 0 1024 1024" version="1.1" xmlns="http://www.w3.org/2000/svg" xmlns:xlink="http://www.w3.org/1999/xlink">
    <!-- Generator: Sketch 50.2 (55047) - http://www.bohemiancoding.com/sketch -->
    <title>Desktop</title>
    <desc>Created with Sketch.</desc>
    <defs>
        <path d="M113.897362,381.964314 C147.575802,413.026023 192.572096,432 242,432 C346.381818,432 431,347.381818 431,243 C431,193.572096 412.026023,148.575802 380.964314,114.897362 C422.188036,101.336448 466.237258,94 512,94 C743.40731,94 931,281.59269 931,513 C931,667.739213 847.119207,802.887016 722.347139,875.453893 L722.347017,746.141076 C722.347017,745.166272 722.225168,744.43518 721.981468,743.947779 L511.790509,570.677319 L301.59955,743.947779 C301.59955,744.19148 301.538626,744.557025 301.416775,745.044427 C301.294925,745.531829 301.234001,745.897375 301.234001,746.141076 L301.234001,875.209961 C176.693104,802.584419 93,667.565996 93,513 C93,467.237258 100.336448,423.188036 113.897362,381.964314 Z M465.000174,929.393409 L465.000174,804.628995 L558.580844,804.628995 L558.580844,929.439964 C543.286923,931.131559 527.744879,932 512,932 C496.111321,932 480.429199,931.115623 465.000174,929.393409 Z M803.864554,720.918161 C805.814161,718.481152 806.667101,715.617709 806.423401,712.327747 C806.1797,709.037786 804.839365,706.41804 802.402356,704.468433 L722.347017,637.938426 L722.347017,488.794232 C722.347017,485.38242 721.25038,482.579902 719.057072,480.386594 C716.863764,478.193286 714.061246,477.096648 710.649433,477.096648 L640.463931,477.096648 C637.052118,477.096648 634.2496,478.193286 632.056292,480.386594 C629.862984,482.579902 628.766347,485.38242 628.766347,488.794232 L628.766347,560.076383 L539.57227,485.504287 C531.773842,479.168064 522.513348,476 511.790509,476 C501.06767,476 491.807176,479.168064 484.008747,485.504287 L221.178662,704.468433 C218.741653,706.41804 217.401318,709.037786 217.157617,712.327747 C216.913916,715.617709 217.766857,718.481152 219.716464,720.918161 L242.380532,747.968823 C244.330139,750.162131 246.88896,751.502466 250.057072,751.989867 C252.981482,752.233568 255.905849,751.380628 258.830259,749.431021 L511.790509,538.508963 L764.750758,749.431021 C766.700365,751.136927 769.259186,751.989867 772.427298,751.989867 L773.523946,751.989867 C776.692058,751.502466 779.250878,750.162131 781.200485,747.968823 L803.864554,720.918161 Z" id="path-1"></path>
    </defs>
    <g id="Desktop" stroke="none" stroke-width="1" fill="none" fill-rule="evenodd">
        <mask id="mask-2" fill="white">
            <use xlink:href="#path-1"></use>
        </mask>
        <use id="Combined-Shape" fill="#F49D37" xlink:href="#path-1"></use>
    </g>
</svg>